HIERARCHY
ROOT root
{
	OFFSET 0.000000 0.000000 0.000000
	CHANNELS 6 Xposition Yposition Zposition Zrotation Yrotation Xrotation
	JOINT lhip
	{
		OFFSET 0.058581 -0.082280 -0.017664
		CHANNELS 3 Zrotation Yrotation Xrotation
		JOINT lknee
		{
			OFFSET 0.043451 -0.386469 0.008037
			CHANNELS 3 Zrotation Yrotation Xrotation
			JOINT lankle
			{
				OFFSET -0.014790 -0.426874 -0.037428
				CHANNELS 3 Zrotation Yrotation Xrotation
				JOINT ltoe
				{
					OFFSET 0.041054 -0.060286 0.122042
					CHANNELS 3 Zrotation Yrotation Xrotation
					End Site
					{
						OFFSET 0.000000 0.000000 0.000000
					}
				}
			}
		}
	}
	JOINT rhip
	{
		OFFSET -0.060310 -0.090513 -0.013543
		CHANNELS 3 Zrotation Yrotation Xrotation
		JOINT rknee
		{
			OFFSET -0.043257 -0.383688 -0.004843
			CHANNELS 3 Zrotation Yrotation Xrotation
			JOINT rankle
			{
				OFFSET 0.019056 -0.420046 -0.034562
				CHANNELS 3 Zrotation Yrotation Xrotation
				JOINT rtoe
				{
					OFFSET -0.034840 -0.062106 0.130323
					CHANNELS 3 Zrotation Yrotation Xrotation
					End Site
					{
						OFFSET 0.000000 0.000000 0.000000
					}
				}
			}
		}
	}
	JOINT lowerback
	{
		OFFSET 0.004439 0.124404 -0.038385
		CHANNELS 3 Zrotation Yrotation Xrotation
		JOINT upperback
		{
			OFFSET 0.004488 0.137956 0.026820
			CHANNELS 3 Zrotation Yrotation Xrotation
			JOINT chest
			{
				OFFSET -0.002265 0.056032 0.002855
				CHANNELS 3 Zrotation Yrotation Xrotation
				JOINT lowerneck
				{
					OFFSET -0.013390 0.211636 -0.033468
					CHANNELS 3 Zrotation Yrotation Xrotation
					JOINT upperneck
					{
						OFFSET 0.010113 0.088937 0.050410
						CHANNELS 3 Zrotation Yrotation Xrotation
						End Site
						{
							OFFSET 0.000000 0.000000 0.000000
						}
					}
				}
				JOINT lclavicle
				{
					OFFSET 0.071702 0.114000 -0.018898
					CHANNELS 3 Zrotation Yrotation Xrotation
					JOINT lshoulder
					{
						OFFSET 0.122921 0.045205 -0.019046
						CHANNELS 3 Zrotation Yrotation Xrotation
						JOINT lelbow
						{
							OFFSET 0.255332 -0.015649 -0.022946
							CHANNELS 3 Zrotation Yrotation Xrotation
							JOINT lwrist
							{
								OFFSET 0.265709 0.012698 -0.007375
								CHANNELS 3 Zrotation Yrotation Xrotation
								End Site
								{
									OFFSET 0.000000 0.000000 0.000000
								}
							}
						}
					}
				}
				JOINT rclavicle
				{
					OFFSET -0.082954 0.112472 -0.023707
					CHANNELS 3 Zrotation Yrotation Xrotation
					JOINT rshoulder
					{
						OFFSET -0.113228 0.046853 -0.008472
						CHANNELS 3 Zrotation Yrotation Xrotation
						JOINT relbow
						{
							OFFSET -0.260127 -0.014369 -0.031269
							CHANNELS 3 Zrotation Yrotation Xrotation
							JOINT rwrist
							{
								OFFSET -0.269108 0.006794 -0.006027
								CHANNELS 3 Zrotation Yrotation Xrotation
								End Site
								{
									OFFSET 0.000000 0.000000 0.000000
								}
							}
						}
					}
				}
			}
		}
	}
}
MOTION
Frames: 13
Frame Time: 0.033333
2.332586 0.693840 0.991528 -84.213836 -0.883418 81.954556 -3.978080 -0.724510 5.226744 0.502177 -10.582010 2.651640 2.927959 10.647214 -10.655440 0.000000 -0.000000 0.000000 -1.214254 -2.953323 1.278541 -2.851436 -2.304940 11.358840 1.261816 -11.254958 -14.774595 0.000000 -0.000000 0.000000 1.020711 3.798771 7.551083 -2.861913 -0.736870 5.945401 -1.403024 2.279969 -4.211744 -0.304516 28.727763 -5.994327 -0.572185 27.390168 -2.298017 -26.735119 -8.760154 0.390260 -51.530792 -5.016865 13.442455 -0.586080 -23.706176 10.311577 -5.979295 -3.875292 3.880928 24.308062 9.273885 5.986522 58.551948 5.356228 19.192615 -0.802935 25.444275 12.377603 5.512062 2.699416 7.004010 
2.332327 0.694322 0.991804 -84.249320 -0.836501 82.012990 -3.799295 -0.819664 5.128816 0.342575 -10.545785 2.719824 2.265942 10.659277 -10.209377 0.000000 -0.000000 0.000000 -1.071388 -2.787751 1.385751 -3.145039 -2.795796 11.104054 1.441340 -10.882798 -14.326961 0.000000 -0.000000 0.000000 1.146171 3.868551 7.717234 -2.759026 -0.739635 5.644516 -1.268068 1.785773 -3.944649 -1.038542 28.899492 -5.627253 -0.923248 27.337548 -3.131095 -26.851444 -8.079221 0.026849 -51.386413 -4.974409 13.345321 -1.003627 -23.841960 10.858046 -6.076609 -4.102018 3.941285 24.236175 9.449480 6.242713 58.549713 5.740820 19.116832 -0.896614 25.223813 12.507492 5.065193 2.988823 7.461478 
2.331802 0.694564 0.992053 -84.244023 -0.851565 81.956502 -3.846652 -0.764978 5.263961 0.456242 -10.544946 2.635294 2.208376 10.673923 -10.226909 0.000000 -0.000000 0.000000 -1.128626 -2.793873 1.464503 -3.141035 -2.909592 11.167985 1.607576 -10.923880 -14.497238 0.000000 -0.000000 0.000000 1.071555 3.857539 7.702167 -2.733029 -0.708155 5.712391 -1.236458 1.832583 -3.826477 -1.131610 28.957647 -5.629494 -0.999184 27.140863 -3.299602 -26.817600 -8.050045 -0.004064 -51.416521 -4.964946 13.302334 -1.049959 -23.922492 10.890903 -6.165113 -4.128626 4.088964 24.357764 9.366361 6.268317 58.411182 5.622661 18.941096 -0.962001 25.546740 12.384694 5.166096 2.938153 7.561398 
2.331737 0.694936 0.992249 -84.415101 -0.812922 81.844105 -3.738126 -0.649835 5.437651 0.337829 -10.598561 2.627683 2.182398 10.835567 -10.213965 0.000000 -0.000000 0.000000 -1.019532 -2.642278 1.564927 -3.194667 -2.888572 11.241250 1.411914 -10.966995 -14.403420 0.000000 -0.000000 0.000000 1.114581 3.819355 8.116114 -2.753230 -0.551258 5.491397 -1.212972 1.860020 -3.968330 -0.926538 28.878842 -5.719506 -0.839204 27.345889 -2.876653 -26.891699 -7.892377 -0.048436 -51.395944 -4.923704 13.321349 -1.116761 -23.985048 11.077124 -5.866110 -4.094040 4.051019 24.303327 9.182759 6.204603 58.440468 5.614891 19.072894 -0.822103 25.541831 12.650498 5.014916 2.957528 7.527555 
2.330949 0.694808 0.992256 -84.250930 -0.771168 81.898246 -3.710394 -0.669056 5.457216 0.423384 -10.622073 2.500873 2.175709 10.731622 -10.171613 0.000000 -0.000000 0.000000 -1.017746 -2.785047 1.651583 -3.170474 -2.963158 11.100779 1.456094 -11.011675 -14.399281 0.000000 -0.000000 0.000000 1.127581 3.817536 7.972833 -2.722982 -0.626396 5.367648 -1.185613 1.772323 -3.824294 -0.858508 28.888146 -5.551846 -0.849343 27.374301 -2.885379 -26.990200 -7.907788 0.028826 -51.345408 -4.880751 13.304608 -1.074083 -23.902299 11.111564 -5.858502 -4.144158 4.076251 24.326027 9.113562 6.184752 58.413015 5.489997 19.071388 -0.805856 25.639488 12.781925 5.031758 2.951951 7.548115 
2.330719 0.694862 0.992208 -84.312606 -0.790100 81.940363 -3.713032 -0.699011 5.445324 0.388637 -10.548831 2.542786 2.136605 10.718943 -10.229183 0.000000 -0.000000 0.000000 -1.025763 -2.710697 1.636462 -3.135325 -2.840239 11.081247 1.445017 -10.837969 -14.308956 0.000000 -0.000000 0.000000 1.095494 3.807613 7.799763 -2.689245 -0.655632 5.538993 -1.199639 1.805776 -3.824265 -0.752215 28.947576 -5.242825 -0.931151 27.392754 -3.099864 -26.928013 -7.944282 0.001447 -51.411564 -4.860863 13.235736 -1.089980 -23.863024 10.768969 -6.085802 -3.927228 3.956069 24.192819 9.192261 6.224710 58.518678 5.637385 19.049103 -0.796568 25.598135 12.667610 5.196828 2.817751 7.635542 
2.330493 0.694803 0.992431 -84.338411 -0.778236 81.963017 -3.716505 -0.684233 5.438018 0.410726 -10.507082 2.551370 2.242495 10.803199 -10.258039 0.000000 -0.000000 0.000000 -1.036832 -2.740876 1.609662 -3.102088 -2.822446 11.104078 1.483145 -10.837100 -14.263945 0.000000 -0.000000 0.000000 1.064579 3.861371 7.758531 -2.631534 -0.630720 5.600475 -1.140241 1.725303 -3.886930 -0.820004 28.861167 -5.194253 -0.996837 27.403906 -3.181205 -26.951397 -7.964034 0.075707 -51.427878 -4.809498 13.241440 -1.127587 -23.842100 10.721871 -6.183277 -3.891589 3.998046 24.166276 9.241775 6.256776 58.458818 5.569274 19.033691 -0.787048 25.625075 12.629013 5.235536 2.839968 7.672324 
2.329848 0.694697 0.992504 -84.285826 -0.709634 81.975643 -3.587042 -0.645079 5.464804 0.324891 -10.526113 2.556911 2.259834 10.674805 -10.283204 0.000000 -0.000000 0.000000 -0.968840 -2.830118 1.711092 -3.113449 -2.791244 10.989880 1.533012 -10.815664 -14.261973 0.000000 -0.000000 0.000000 1.018305 3.891091 7.614988 -2.542935 -0.676972 5.771826 -1.064251 1.701490 -3.960409 -0.846549 28.876466 -5.047423 -1.069140 27.339135 -3.532141 -26.958287 -8.005697 0.082564 -51.442617 -4.825934 13.182872 -1.280987 -23.767572 10.566177 -6.386862 -3.779606 3.923913 24.160248 9.280425 6.185025 58.398915 5.390198 19.004532 -0.838498 25.729922 12.561064 5.459959 2.814817 7.623366 
2.329389 0.694670 0.992452 -84.333470 -0.675215 81.952402 -3.544758 -0.640040 5.584667 0.311505 -10.532957 2.436621 2.223490 10.729414 -10.238127 0.000000 -0.000000 0.000000 -0.895526 -2.812159 1.774494 -3.207860 -2.823599 10.987021 1.469732 -10.913722 -14.293881 0.000000 -0.000000 0.000000 1.072134 3.837338 7.695143 -2.589351 -0.702488 5.679957 -1.106289 1.763768 -3.977946 -0.821390 28.882692 -5.060803 -0.994989 27.351861 -3.572358 -26.913319 -7.968746 0.048464 -51.447855 -4.764217 13.101651 -1.265522 -23.873848 10.444689 -6.615965 -3.583477 3.835501 24.185534 9.374376 6.359756 58.440423 5.392674 19.028398 -0.946411 25.747899 12.507731 5.531658 2.792757 7.577479 
2.328713 0.694390 0.992552 -84.424618 -0.650718 81.939050 -3.502606 -0.580282 5.691718 0.281021 -10.576851 2.409900 2.163482 10.706328 -10.273542 0.000000 -0.000000 0.000000 -0.877851 -2.821272 1.894710 -3.202768 -2.754722 10.859678 1.568143 -10.854584 -14.417939 0.000000 -0.000000 0.000000 1.128622 3.847025 7.846738 -2.632598 -0.676213 5.488609 -1.085825 1.676827 -3.976651 -0.757906 28.945562 -5.112935 -0.939737 27.526790 -3.431810 -26.955230 -7.898505 -0.026074 -51.480039 -4.522418 13.296937 -1.128061 -23.945375 11.056552 -6.222327 -4.013848 4.238501 24.204482 9.269373 6.269512 58.430886 5.407056 19.014889 -0.846688 25.697572 12.773811 5.401369 3.025376 7.871859 
2.328614 0.694157 0.992905 -84.482799 -0.665063 81.921347 -3.529377 -0.511338 5.786716 0.331251 -10.490186 2.315756 2.182368 10.668666 -10.321212 0.000000 -0.000000 0.000000 -0.916687 -2.814157 1.910663 -3.157809 -2.653936 10.888435 1.522340 -10.781629 -14.309351 0.000000 -0.000000 0.000000 1.039177 3.937182 7.915542 -2.594546 -0.612093 5.353922 -0.988958 1.639401 -3.883776 -0.776327 28.611481 -4.823885 -1.133722 27.318594 -4.013255 -26.979063 -7.988137 0.029837 -51.427902 -4.496099 13.337584 -1.266933 -24.092407 10.997734 -6.188905 -3.783951 4.048545 24.122089 9.220029 6.218287 58.393660 5.301871 18.999666 -0.694192 25.802542 12.764029 5.398332 2.862103 7.643608 
2.328454 0.693921 0.993017 -84.520661 -0.671209 81.945157 -3.541668 -0.515556 5.765349 0.302129 -10.548442 2.368204 2.190842 10.741467 -10.318340 0.000000 -0.000000 0.000000 -0.934676 -2.773348 1.863139 -3.150880 -2.616459 10.973246 1.499880 -10.869208 -14.443840 0.000000 -0.000000 0.000000 0.981510 3.946266 7.867930 -2.551725 -0.610763 5.345656 -0.956978 1.630990 -3.874314 -0.750112 28.551179 -4.700857 -1.127721 27.315776 -4.125997 -26.942394 -7.970500 -0.024597 -51.432324 -4.546585 13.203565 -1.423856 -24.084657 10.508138 -6.524872 -3.362327 3.797021 24.066090 9.234149 6.164935 58.402180 5.246510 19.016446 -0.631487 25.816621 12.765978 5.569958 2.784763 7.794818 
2.328380 0.693685 0.993103 -84.530669 -0.715123 81.946253 -3.604193 -0.483378 5.795381 0.316378 -10.589591 2.310243 2.240664 10.817715 -10.451919 0.000000 -0.000000 0.000000 -0.952051 -2.741138 1.886614 -3.257305 -2.641642 10.935287 1.519951 -10.970665 -14.359017 0.000000 -0.000000 0.000000 0.904685 3.912801 7.909956 -2.540179 -0.563606 5.332351 -0.943317 1.616652 -3.890768 -0.693022 28.488755 -4.898554 -0.997325 27.382949 -3.889231 -27.096017 -8.008189 0.090708 -51.274509 -4.521624 13.377220 -1.365098 -24.098866 11.092313 -6.201710 -3.645965 4.164734 24.174439 9.253855 6.226602 58.308920 5.214244 19.029025 -0.682698 25.851084 12.772878 5.360299 2.846177 7.686405 
